0
SECTION
2
HEADER
9
$INSUNITS
70
4
9
$ACADVER
1
AC1014
9
$HANDSEED
5
FFFF
0
ENDSEC
0
SECTION
2
TABLES
0
TABLE
2
VPORT
5
8
100
AcDbSymbolTable
0
ENDTAB
0
TABLE
2
LTYPE
5
5
100
AcDbSymbolTable
0
LTYPE
5
14
100
AcDbSymbolTableRecord
100
AcDbLinetypeTableRecord
2
BYBLOCK
70
0
0
LTYPE
5
15
100
AcDbSymbolTableRecord
100
AcDbLinetypeTableRecord
2
BYLAYER
70
0
0
ENDTAB
0
TABLE
2
LAYER
5
2
100
AcDbSymbolTable
70
2
0
LAYER
5
50
100
AcDbSymbolTableRecord
100
AcDbLayerTableRecord
2
0
70
0
6
CONTINUOUS
0
ENDTAB
0
TABLE
2
STYLE
5
3
100
AcDbSymbolTable
70
1
0
STYLE
5
11
100
AcDbSymbolTableRecord
100
AcDbTextStyleTableRecord
2
STANDARD
70
0
0
ENDTAB
0
TABLE
2
VIEW
5
6
100
AcDbSymbolTable
70
0
0
ENDTAB
0
TABLE
2
UCS
5
7
100
AcDbSymbolTable
70
0
0
ENDTAB
0
TABLE
2
APPID
5
9
100
AcDbSymbolTable
70
2
0
APPID
5
12
100
AcDbSymbolTableRecord
100
AcDbRegAppTableRecord
2
ACAD
70
0
0
ENDTAB
0
TABLE
2
DIMSTYLE
5
A
100
AcDbSymbolTable
70
1
0
ENDTAB
0
TABLE
2
BLOCK_RECORD
5
1
100
AcDbSymbolTable
70
1
0
BLOCK_RECORD
5
1F
100
AcDbSymbolTableRecord
100
AcDbBlockTableRecord
2
*MODEL_SPACE
0
BLOCK_RECORD
5
1B
100
AcDbSymbolTableRecord
100
AcDbBlockTableRecord
2
*PAPER_SPACE
0
ENDTAB
0
ENDSEC
0
SECTION
2
BLOCKS
0
BLOCK
5
20
100
AcDbEntity
100
AcDbBlockBegin
2
*MODEL_SPACE
0
ENDBLK
5
21
100
AcDbEntity
100
AcDbBlockEnd
0
BLOCK
5
1C
100
AcDbEntity
100
AcDbBlockBegin
2
*PAPER_SPACE
0
ENDBLK
5
1D
100
AcDbEntity
100
AcDbBlockEnd
0
ENDSEC
0
SECTION
2
ENTITIES
0
LWPOLYLINE
5
100
100
AcDbEntity
8
0
100
AcDbPolyline
90
12
70
1
43
0.0
10
-5.7999998703598976
20
-0.41938852164279145
10
-5.7999998703598976
20
2.3769260508936445
10
-3.9255877656642335
20
2.3769260508936445
10
-3.5785311216737896
20
1.4844946806325019
10
-4.5227606948952257
20
1.4844946806325019
10
-4.5227606948952257
20
1.3128890099550805
10
-4.0151198230746656
20
1.3128890099550803
10
-4.0151198230746656
20
0.74841604246419835
10
-4.5227606948952257
20
0.74841604246419835
10
-4.5227606948952257
20
0.57681037178677719
10
-3.5374851445112614
20
0.57681037178677719
10
-3.8785953562501589
20
-0.41938852164279122
0
LWPOLYLINE
5
101
100
AcDbEntity
8
0
100
AcDbPolyline
90
12
70
1
43
0.0
10
-2.899950580612165
20
0.9506376637944991
10
-3.7682546981147147
20
2.3769260508936445
10
-2.8252102392218639
20
2.3769260508936445
10
-2.477460903880659
20
1.7148685198673022
10
-2.1297115685394545
20
2.3769260508936445
10
-1.2990211054944334
20
2.3769260508936445
10
-2.0416454833235296
20
0.96309139443600433
10
-1.1946216356553672
20
-0.41938852164279161
10
-2.0648983413152133
20
-0.41938852164279145
10
-2.4330608353422249
20
0.18536029759178363
10
-2.7507084567070756
20
-0.41938852164279139
10
-3.7129772316795364
20
-0.41938852164279117
0
LWPOLYLINE
5
102
100
AcDbEntity
8
0
100
AcDbPolyline
90
9
70
1
43
0.0
10
-1.283627552849071
20
1.9717433226035663
10
-1.1310262655709893
20
2.3769260508936445
10
0.58193174415142956
20
2.3769260508936445
10
0.79450205427490928
20
1.4227066115856257
10
0.29677718540817799
20
1.4227066115856257
10
0.29677718540817799
20
-0.41938852164279167
10
-0.81668978927306513
20
-0.41938852164279172
10
-0.81668978927306513
20
1.4227066115856257
10
-1.283627552849071
20
1.4227066115856257
0
LWPOLYLINE
5
103
100
AcDbEntity
8
0
100
AcDbPolyline
90
8
70
1
43
0.0
10
1.9541496868922397
20
-0.41938852164279167
10
0.96383113337389847
20
-0.41938852164279172
10
0.96383113337389859
20
2.3769260508936445
10
2.0875604764853848
20
2.3769260508936445
42
-0.70278734645839414
10
2.691975037029668
20
0.69827225106965263
10
3.3674842952624653
20
-0.41938852164279167
10
2.2796732416568251
20
-0.41938852164279167
10
1.9541496868922397
20
0.11920499624043165
0
LWPOLYLINE
5
104
100
AcDbEntity
8
0
100
AcDbPolyline
90
7
70
1
43
0.0
10
4.7887591539004344
20
2.533049179528406
10
3.4863149445807808
20
-0.41938852164279161
10
4.3997642771910961
20
-0.41938852164279167
10
4.6795608129254855
20
0.13944186471343051
10
4.9412778537051345
20
0.13944186471343051
10
5.2244277509345576
20
-0.41938852164279167
10
6.2847093600332951
20
-0.41938852164279172
0
CIRCLE
5
105
100
AcDbEntity
8
0
100
AcDbCircle
10
2.0875604764853843
20
1.4287866724836273
30
0
40
0.20000000000000004
0
CIRCLE
5
106
100
AcDbEntity
8
0
100
AcDbCircle
10
4.8038338962232343
20
0.86718054558610413
30
0
40
0.19999999999999976
0
LWPOLYLINE
5
107
100
AcDbEntity
8
0
100
AcDbPolyline
90
6
70
1
43
0.0
10
-2.5181127046799978
20
-0.78418615138559422
10
-3.5670350654173144
20
-0.78418615138559411
10
-3.567035065417314
20
-3.6300749392619873
10
-1.7963771353653302
20
-3.6300749392619873
10
-1.5269291894878545
20
-2.6966302696150173
10
-2.5181127046799978
20
-2.6966302696150173
0
LWPOLYLINE
5
108
100
AcDbEntity
8
0
100
AcDbPolyline
90
4
70
1
43
0.0
10
-0.2951671511908216
20
-3.6300749392619873
10
-1.4083400993659079
20
-3.6300749392619873
10
-1.4083400993659194
20
-0.78418615138559455
10
-0.29516715119082132
20
-0.78418615138559467
0
LWPOLYLINE
5
109
100
AcDbEntity
8
0
100
AcDbPolyline
90
10
70
1
43
0.0
10
-0.17968946010047504
20
-3.6300749392619873
10
-0.17968946010047504
20
-0.78418615138559467
10
1.5018086864680931
20
-0.78418615138559433
10
1.8133278296430224
20
-1.6852119360527067
10
0.84253947018854691
20
-1.6852119360527067
10
0.84253947018854691
20
-1.8830748660448373
10
1.4547010270052279
20
-1.8830748660448373
10
1.4547010270052279
20
-2.4656748874343237
10
0.92697174618201594
20
-2.4656748874343237
10
0.92697174618201594
20
-3.6300749392619873
0
LWPOLYLINE
5
110
100
AcDbEntity
8
0
100
AcDbPolyline
90
12
70
1
43
0.0
10
1.9729796293151036
20
-3.6300749392619873
10
1.9729796293151036
20
-0.78418615138559411
10
3.6630119532723446
20
-0.78418615138559367
10
3.9396908636923755
20
-1.6941548256076153
10
2.990434135532416
20
-1.6941548256076153
10
2.990434135532416
20
-1.8645342383542742
10
3.5928470591723904
20
-1.8645342383542742
10
3.5928470591723904
20
-2.513287053854047
10
2.990434135532416
20
-2.5132870538540475
10
2.990434135532416
20
-2.6836664666007062
10
3.9459055799562019
20
-2.6836664666007066
10
3.6603170812504748
20
-3.6300749392619873
0
ENDSEC
0
SECTION
2
OBJECTS
0
DICTIONARY
5
C
100
AcDbDictionary
3
ACAD_GROUP
350
D
3
ACAD_MLINESTYLE
350
17
0
DICTIONARY
5
D
100
AcDbDictionary
0
DICTIONARY
5
1A
330
C
100
AcDbDictionary
0
DICTIONARY
5
17
100
AcDbDictionary
0
ENDSEC
0
EOF
